<mxfile host="app.diagrams.net" modified="2023-08-17T00:04:28.528Z" agent="Mozilla/5.0 (iPad; CPU OS 16_6 like Mac OS X) AppleWebKit/605.1.15 (KHTML, like Gecko) EdgiOS/115.0.1901.187 Version/16.0 Mobile/15E148 Safari/604.1" version="21.6.8" etag="NEvocMFoy9W_Qd--KUxh" type="github">
  <diagram name="Page-1" id="eOqHvzK0h8Tf8M_UrH2V">
    <mxGraphModel>
      <root>
        <mxCell id="0" />
        <mxCell id="1" parent="0" />
      </root>
    </mxGraphModel>
  </diagram>
</mxfile>
